<?xml version="1.0" standalone="no"?>
<!DOCTYPE svg PUBLIC "-//W3C//DTD SVG 20010904//EN"
 "http://www.w3.org/TR/2001/REC-SVG-20010904/DTD/svg10.dtd">
<svg version="1.0" xmlns="http://www.w3.org/2000/svg"
 width="512.000000pt" height="512.000000pt" viewBox="0 0 512.000000 512.000000"
 preserveAspectRatio="xMidYMid meet">
<metadata>
Created by potrace 1.14, written by Peter Selinger 2001-2017
</metadata>
<g transform="translate(0.000000,512.000000) scale(0.100000,-0.100000)"
fill="#000000" stroke="none">
<path d="M2474 3890 c-779 -65 -1450 -539 -1769 -1249 -87 -194 -160 -474
-168 -646 -3 -44 -2 -60 0 -36 l4 43 37 -6 c20 -3 105 -13 187 -21 83 -8 179
-19 215 -23 36 -4 166 -5 290 -2 l225 6 -222 2 -222 2 -4 33 -4 32 -1 -33 -2
-33 -48 5 c-26 3 -76 8 -112 11 -36 3 -125 13 -198 22 l-132 16 0 29 c0 49 49
260 84 363 51 152 40 138 105 130 31 -4 115 -13 186 -19 l130 -11 -2 -60 c-2
-64 2 -59 12 16 l6 45 83 -4 c76 -4 427 12 501 23 17 3 77 11 135 20 125 18
312 56 306 62 -2 3 -46 -5 -98 -16 -122 -26 -316 -54 -333 -48 -7 3 -17 1 -23
-5 -7 -7 -110 -13 -292 -16 l-281 -5 5 24 c24 113 64 259 91 334 55 151 45
140 128 139 l72 -1 -67 4 c-38 2 -68 6 -68 9 0 10 64 132 97 184 72 113 113
159 147 164 92 13 219 26 223 23 2 -2 -6 -42 -17 -88 -11 -46 -22 -117 -25
-159 l-5 -75 15 85 c17 100 50 229 62 240 4 4 54 17 111 29 57 12 143 34 193
48 49 14 91 24 93 22 5 -6 116 -323 116 -332 0 -4 -10 -12 -22 -18 -22 -9 -21
-9 4 -4 22 4 28 0 36 -23 6 -15 37 -103 70 -197 33 -93 65 -182 71 -197 10
-27 9 -28 -44 -44 -30 -10 -53 -20 -50 -22 2 -2 25 3 51 12 27 9 51 13 55 9 3
-5 41 -108 84 -231 43 -122 80 -221 81 -219 2 2 -30 104 -71 227 -41 124 -75
228 -75 231 0 4 30 17 66 29 36 12 64 24 61 26 -2 2 -32 -6 -66 -17 -34 -12
-64 -19 -67 -16 -14 13 -151 447 -141 447 6 0 4 6 -5 13 -14 10 -118 305 -118
332 0 6 35 23 78 39 42 16 122 48 176 72 l100 44 55 -42 c90 -67 234 -215 228
-232 -4 -10 -1 -13 7 -10 9 3 40 -28 81 -80 37 -47 69 -86 72 -86 2 0 -25 38
-61 85 -36 47 -66 87 -66 89 0 2 34 23 75 45 41 23 75 44 75 47 0 5 -124 -61
-146 -78 -8 -5 -33 16 -74 61 -34 39 -97 100 -141 137 -43 37 -79 70 -79 73 0
7 177 104 199 110 39 9 408 -144 418 -174 2 -6 -35 -34 -82 -64 -47 -29 -85
-55 -85 -58 0 -6 54 27 131 78 l57 38 90 -62 c97 -66 272 -212 272 -227 0 -11
-154 -124 -285 -209 -135 -87 -150 -97 -90 -65 64 35 241 153 325 217 l65 49
68 -74 c38 -40 101 -116 140 -169 105 -139 122 -160 86 -104 -50 77 -140 192
-213 274 -36 40 -66 76 -66 80 1 3 26 26 57 51 32 25 85 71 119 103 34 31 66
57 72 57 19 0 209 -150 307 -243 l100 -95 -50 -52 c-75 -77 -265 -235 -281
-234 -8 1 -12 -2 -9 -6 16 -26 -399 -306 -655 -443 -202 -108 -607 -276 -630
-262 -6 3 -10 2 -10 -3 0 -8 -150 -58 -253 -83 -26 -6 -46 -14 -43 -16 3 -3
71 14 152 37 119 34 149 39 156 28 8 -10 9 -9 5 3 -4 12 19 24 101 54 360 130
747 335 1063 564 68 49 129 93 134 98 90 74 214 181 266 230 l66 62 25 -27
c35 -38 116 -147 157 -210 18 -28 35 -52 38 -52 17 0 -147 224 -234 321 -345
378 -779 612 -1273 683 -135 20 -347 27 -476 16z m310 -29 c17 -6 15 -10 -15
-27 -33 -18 -37 -19 -114 -2 -44 9 -100 17 -125 18 l-45 3 35 7 c46 10 240 11
264 1z m292 -37 c136 -27 269 -65 269 -79 0 -4 -35 -35 -78 -68 l-79 -60 -106
56 c-59 31 -150 72 -202 92 -52 21 -96 38 -98 40 -2 2 14 15 35 29 44 30 59
30 259 -10z m-448 -14 c34 -7 62 -15 62 -19 0 -4 -42 -29 -93 -56 l-93 -49
-30 21 c-43 30 -143 79 -194 94 l-45 14 30 7 c43 10 288 2 363 -12z m-355 -35
c58 -15 191 -77 201 -94 8 -12 -320 -150 -329 -139 -6 8 -75 225 -75 236 0 17
131 16 203 -3z m-200 -124 c24 -68 36 -116 30 -122 -10 -10 -314 -89 -344 -89
-16 0 -19 4 -14 23 14 45 76 146 121 196 45 50 139 114 158 108 5 -2 27 -54
49 -116z m1373 65 c110 -44 139 -58 229 -108 142 -78 137 -69 74 -126 -30 -27
-84 -75 -122 -106 l-67 -58 -34 29 c-19 15 -63 53 -98 84 -35 31 -99 82 -143
114 -44 31 -80 61 -80 65 0 11 156 129 171 130 5 0 37 -11 70 -24z m-1623 -63
c-31 -41 -85 -146 -106 -204 -6 -17 -57 -28 -197 -45 l-55 -6 55 57 c30 31 82
79 116 105 61 50 201 140 216 140 4 0 -9 -21 -29 -47z m-297 -154 c-98 -99
-102 -102 -153 -107 -29 -2 -53 -2 -53 1 0 13 286 207 305 207 2 0 -43 -46
-99 -101z m-126 -133 c0 -3 -25 -41 -55 -86 -30 -45 -73 -120 -97 -167 l-43
-85 -109 6 c-60 3 -111 8 -114 11 -9 8 69 98 185 213 l115 112 59 0 c32 0 59
-2 59 -4z m-214 -351 c8 -2 0 -34 -22 -92 -27 -71 -77 -262 -100 -381 -4 -22
-7 -23 -82 -16 -104 8 -283 31 -288 37 -6 6 99 217 142 285 20 31 56 85 81
120 l44 63 107 -7 c59 -3 112 -7 118 -9z"/>
<path d="M2650 3310 c-8 -5 -10 -10 -5 -10 6 0 17 5 25 10 8 5 11 10 5 10 -5
0 -17 -5 -25 -10z"/>
<path d="M2570 3275 c-14 -8 -20 -14 -15 -14 6 0 21 6 35 14 14 8 21 14 15 14
-5 0 -21 -6 -35 -14z"/>
<path d="M2510 3250 c-8 -5 -10 -10 -5 -10 6 0 17 5 25 10 8 5 11 10 5 10 -5
0 -17 -5 -25 -10z"/>
<path d="M2430 3220 c-8 -5 -10 -10 -5 -10 6 0 17 5 25 10 8 5 11 10 5 10 -5
0 -17 -5 -25 -10z"/>
<path d="M2168 3133 c7 -3 16 -2 19 1 4 3 -2 6 -13 5 -11 0 -14 -3 -6 -6z"/>
<path d="M3015 3116 c10 -14 19 -26 22 -26 7 0 -17 39 -28 46 -6 3 -3 -5 6
-20z"/>
<path d="M2128 3123 c7 -3 16 -2 19 1 4 3 -2 6 -13 5 -11 0 -14 -3 -6 -6z"/>
<path d="M2088 3113 c7 -3 16 -2 19 1 4 3 -2 6 -13 5 -11 0 -14 -3 -6 -6z"/>
<path d="M2048 3103 c7 -3 16 -2 19 1 4 3 -2 6 -13 5 -11 0 -14 -3 -6 -6z"/>
<path d="M2008 3093 c7 -3 16 -2 19 1 4 3 -2 6 -13 5 -11 0 -14 -3 -6 -6z"/>
<path d="M1958 3083 c7 -3 16 -2 19 1 4 3 -2 6 -13 5 -11 0 -14 -3 -6 -6z"/>
<path d="M1903 3073 c9 -2 23 -2 30 0 6 3 -1 5 -18 5 -16 0 -22 -2 -12 -5z"/>
<path d="M1641 3058 c-1 -10 -12 -18 -28 -21 l-28 -4 28 -2 c26 -1 27 -4 29
-53 l2 -53 3 50 c3 27 10 53 16 57 9 6 9 8 0 8 -6 0 -14 8 -16 18 -4 15 -5 15
-6 0z"/>
<path d="M1843 3063 c9 -2 23 -2 30 0 6 3 -1 5 -18 5 -16 0 -22 -2 -12 -5z"/>
<path d="M1783 3053 c9 -2 23 -2 30 0 6 3 -1 5 -18 5 -16 0 -22 -2 -12 -5z"/>
<path d="M1703 3043 c9 -2 25 -2 35 0 9 3 1 5 -18 5 -19 0 -27 -2 -17 -5z"/>
<path d="M1448 3023 c23 -2 61 -2 85 0 23 2 4 4 -43 4 -47 0 -66 -2 -42 -4z"/>
<path d="M3083 3008 c1 -6 -61 -44 -138 -84 -77 -41 -136 -74 -131 -74 5 0 70
31 144 70 74 38 137 68 141 65 4 -2 8 2 8 10 0 8 -6 16 -14 19 -7 3 -12 0 -10
-6z"/>
<path d="M4470 2840 c6 -11 13 -20 16 -20 2 0 0 9 -6 20 -6 11 -13 20 -16 20
-2 0 0 -9 6 -20z"/>
<path d="M2740 2825 c-14 -8 -20 -14 -15 -14 6 0 21 6 35 14 14 8 21 14 15 14
-5 0 -21 -6 -35 -14z"/>
<path d="M2635 2783 c-64 -27 -86 -40 -45 -28 35 11 127 53 115 53 -5 0 -37
-11 -70 -25z"/>
<path d="M3950 2780 c6 -11 13 -20 16 -20 2 0 0 9 -6 20 -6 11 -13 20 -16 20
-2 0 0 -9 6 -20z"/>
<path d="M4527 2735 c15 -30 29 -53 31 -51 4 5 -46 106 -53 106 -3 0 7 -25 22
-55z"/>
<path d="M1643 2700 c0 -30 2 -43 4 -27 2 15 2 39 0 55 -2 15 -4 2 -4 -28z"/>
<path d="M2185 2634 c-44 -13 -64 -22 -45 -19 42 6 162 43 140 43 -8 0 -51
-11 -95 -24z"/>
<path d="M4580 2625 c0 -5 5 -17 10 -25 5 -8 10 -10 10 -5 0 6 -5 17 -10 25
-5 8 -10 11 -10 5z"/>
<path d="M1043 2325 c0 -33 2 -45 4 -27 2 18 2 45 0 60 -2 15 -4 0 -4 -33z"/>
<path d="M2200 2065 c-25 -7 -38 -13 -30 -14 8 0 38 6 65 13 28 8 41 14 30 14
-11 0 -40 -6 -65 -13z"/>
<path d="M2060 2035 c-30 -7 -44 -13 -30 -13 14 0 48 6 75 13 65 16 27 17 -45
0z"/>
<path d="M1963 2013 c9 -2 23 -2 30 0 6 3 -1 5 -18 5 -16 0 -22 -2 -12 -5z"/>
<path d="M1810 1995 c-41 -7 -61 -13 -45 -13 17 0 64 5 105 12 41 8 62 13 45
13 -16 0 -64 -5 -105 -12z"/>
<path d="M1663 1973 c15 -2 37 -2 50 0 12 2 0 4 -28 4 -27 0 -38 -2 -22 -4z"/>
<path d="M1527 1963 c18 -2 50 -2 70 0 21 2 7 4 -32 4 -38 0 -55 -2 -38 -4z"/>
<path d="M1052 1875 c0 -16 2 -22 5 -12 2 9 2 23 0 30 -3 6 -5 -1 -5 -18z"/>
<path d="M524 1780 c0 -58 1 -81 3 -52 2 28 2 76 0 105 -2 28 -3 5 -3 -53z"/>
<path d="M1061 1784 c0 -11 3 -14 6 -6 3 7 2 16 -1 19 -3 4 -6 -2 -5 -13z"/>
<path d="M532 1580 c0 -19 2 -27 5 -17 2 9 2 25 0 35 -3 9 -5 1 -5 -18z"/>
<path d="M542 1495 c0 -16 2 -22 5 -12 2 9 2 23 0 30 -3 6 -5 -1 -5 -18z"/>
<path d="M551 1424 c0 -11 3 -14 6 -6 3 7 2 16 -1 19 -3 4 -6 -2 -5 -13z"/>
<path d="M562 1370 c0 -14 2 -19 5 -12 2 6 2 18 0 25 -3 6 -5 1 -5 -13z"/>
<path d="M571 1324 c0 -11 3 -14 6 -6 3 7 2 16 -1 19 -3 4 -6 -2 -5 -13z"/>
</g>
</svg>
